HIERARCHY
ROOT Hips
{
	OFFSET -0.001795 -0.223333 0.028219
	CHANNELS 6 Xposition Yposition Zposition Zrotation Yrotation Xrotation 
	JOINT LeftUpLeg
	{
		OFFSET 0.069520 -0.091406 -0.006815
		CHANNELS 3 Zrotation Yrotation Xrotation
		JOINT LeftLeg
		{
			OFFSET 0.034277 -0.375199 -0.004496
			CHANNELS 3 Zrotation Yrotation Xrotation
			JOINT LeftFoot
			{
				OFFSET -0.013596 -0.397961 -0.043693
				CHANNELS 3 Zrotation Yrotation Xrotation
				JOINT LeftToe
				{
					OFFSET 0.026358 -0.055791 0.119288
					CHANNELS 3 Zrotation Yrotation Xrotation
					End Site
					{
						OFFSET 0.000000 0.000000 0.000000
					}
				}
			}
		}
	}
	JOINT RightUpLeg
	{
		OFFSET -0.067670 -0.090522 -0.004320
		CHANNELS 3 Zrotation Yrotation Xrotation
		JOINT RightLeg
		{
			OFFSET -0.038290 -0.382569 -0.008850
			CHANNELS 3 Zrotation Yrotation Xrotation
			JOINT RightFoot
			{
				OFFSET 0.015774 -0.398415 -0.042312
				CHANNELS 3 Zrotation Yrotation Xrotation
				JOINT RightToe
				{
					OFFSET -0.025372 -0.048144 0.123348
					CHANNELS 3 Zrotation Yrotation Xrotation
					End Site
					{
						OFFSET 0.000000 0.000000 0.000000
					}
				}
			}
		}
	}
	JOINT Spine
	{
		OFFSET -0.002533 0.108963 -0.026696
		CHANNELS 3 Zrotation Yrotation Xrotation
		JOINT Spine1
		{
			OFFSET 0.005487 0.135180 0.001092
			CHANNELS 3 Zrotation Yrotation Xrotation
			JOINT Spine2
			{
				OFFSET 0.001457 0.052922 0.025425
				CHANNELS 3 Zrotation Yrotation Xrotation
				JOINT Neck
				{
					OFFSET -0.002778 0.213870 -0.042857
					CHANNELS 3 Zrotation Yrotation Xrotation
					JOINT Head
					{
						OFFSET 0.005152 0.064970 0.051349
						CHANNELS 3 Zrotation Yrotation Xrotation
						End Site
						{
							OFFSET 0.000000 0.000000 0.000000
						}
					}
				}
				JOINT LeftShoulder
				{
					OFFSET 0.078845 0.121749 -0.034090
					CHANNELS 3 Zrotation Yrotation Xrotation
					JOINT LeftArm
					{
						OFFSET 0.090977 0.030469 -0.008868
						CHANNELS 3 Zrotation Yrotation Xrotation
						JOINT LeftForeArm
						{
							OFFSET 0.259612 -0.012772 -0.027456
							CHANNELS 3 Zrotation Yrotation Xrotation
							JOINT LeftHand
							{
								OFFSET 0.249234 0.008986 -0.001171
								CHANNELS 3 Zrotation Yrotation Xrotation
								End Site
								{
									OFFSET 0.000000 0.000000 0.000000
								}
							}
						}
					}
				}
				JOINT RightShoulder
				{
					OFFSET -0.081759 0.118833 -0.038615
					CHANNELS 3 Zrotation Yrotation Xrotation
					JOINT RightArm
					{
						OFFSET -0.096012 0.032551 -0.009143
						CHANNELS 3 Zrotation Yrotation Xrotation
						JOINT RightForeArm
						{
							OFFSET -0.253742 -0.013329 -0.021401
							CHANNELS 3 Zrotation Yrotation Xrotation
							JOINT RightHand
							{
								OFFSET -0.255298 0.007772 -0.005559
								CHANNELS 3 Zrotation Yrotation Xrotation
								End Site
								{
									OFFSET 0.000000 0.000000 0.000000
								}
							}
						}
					}
				}
			}
		}
	}
}
MOTION
Frames: 8
Frame Time: 0.050000
-0.019711 0.958310 -0.052693 -1.961361 -18.234776 16.445843 8.052305 -0.115928 -12.552597 3.359381 -0.296956 -2.318408 7.360407 14.337610 16.464507 0.000000 0.000000 0.000000 -4.920221 1.907204 -18.644163 -5.777782 0.270510 -1.797710 4.904758 0.309549 14.368146 0.000000 0.000000 0.000000 4.903382 0.036284 -3.274226 3.194547 -1.306443 -2.295426 -6.157068 -7.229326 3.177822 10.061711 -8.257141 8.655807 0.000000 0.000000 0.000000 20.208762 -4.151841 -0.135597 -61.283849 -30.167234 15.027154 134.876290 -50.522164 -80.274548 0.000000 0.000000 0.000000 -11.135892 -10.078644 0.514749 76.991379 30.644077 7.809281 174.553948 51.301570 168.320680 0.000000 0.000000 0.000000 
-0.020145 0.955723 -0.052303 -1.029176 -16.400261 16.097092 8.305035 -0.134673 -13.319487 2.386286 -0.205318 -1.980125 6.466557 13.237912 14.441702 0.000000 0.000000 0.000000 -6.301600 1.719728 -17.991769 -4.895219 0.157605 -2.636348 3.499154 -1.756242 13.978016 0.000000 0.000000 0.000000 4.887861 -0.013670 -2.845023 3.780602 -1.540990 -3.064882 -6.956646 -5.137506 3.842278 12.740214 -10.645790 6.038479 0.000000 0.000000 0.000000 16.244511 -1.554921 -0.100288 -68.764550 -27.148281 14.114088 150.388797 -52.599201 -107.349563 0.000000 0.000000 0.000000 -10.590636 -11.660516 -0.411571 78.894507 27.604675 7.189055 175.463187 49.924629 172.547261 0.000000 0.000000 0.000000 
-0.019475 0.953775 -0.052572 0.874210 -10.575375 15.310423 7.325086 -0.433956 -15.002751 1.258286 -0.103889 -1.125460 3.512697 9.129370 12.718478 0.000000 0.000000 0.000000 -8.618013 1.325732 -16.685482 -4.358734 0.268211 -1.224815 0.296514 -5.859906 11.995409 0.000000 0.000000 0.000000 5.443096 -0.039232 -2.943650 3.633187 -1.451939 -4.040676 -7.479875 -1.517954 4.581493 18.330450 -14.718568 0.884723 0.000000 0.000000 0.000000 12.141880 0.296457 0.292651 -72.019276 -29.073514 13.506364 154.060375 -51.899921 -116.794103 0.000000 0.000000 0.000000 -11.318310 -12.022587 -1.138826 82.392284 28.457758 11.839800 -169.197831 54.647805 -153.046642 0.000000 0.000000 0.000000 
-0.018372 0.953062 -0.053434 2.382690 -5.701602 15.290236 6.112570 -0.757596 -16.743818 0.409872 -0.038637 -0.188417 1.511583 6.384402 12.150417 0.000000 0.000000 0.000000 -10.415639 1.023397 -15.954282 -3.354982 0.302998 -0.025680 -1.595352 -8.304206 10.663199 0.000000 0.000000 0.000000 6.029415 0.059111 -4.416246 4.151845 -1.677070 -3.438155 -7.701002 5.833828 4.307662 23.122506 -17.930365 -2.888032 0.000000 0.000000 0.000000 10.707657 3.593469 0.547053 -73.168503 -33.478369 12.864609 154.608528 -53.390591 -125.266928 0.000000 0.000000 0.000000 -14.734456 -11.944267 -1.964351 82.821328 31.793437 20.605417 -138.978481 54.562703 -97.690745 0.000000 0.000000 0.000000 
-0.017583 0.953569 -0.054154 3.264405 -1.916169 14.626080 5.367725 -0.937630 -16.525679 0.447861 -0.031512 -0.428717 -0.293817 3.782576 11.825497 0.000000 0.000000 0.000000 -11.226007 0.782453 -14.571047 -2.884355 0.352445 1.117332 -3.161306 -10.992326 11.310358 0.000000 0.000000 0.000000 7.295566 0.059311 -4.752900 3.513629 -1.402544 -3.473002 -7.462775 11.467872 3.524062 26.747218 -20.523788 -4.762678 0.000000 0.000000 0.000000 10.594527 4.881848 1.084059 -73.050053 -38.869362 13.551311 152.581526 -52.151961 -124.155002 0.000000 0.000000 0.000000 -18.154846 -9.534868 -2.440589 83.415932 33.795167 27.408795 -121.874615 46.889063 -62.957374 0.000000 0.000000 0.000000 
-0.017136 0.955274 -0.054696 3.358203 0.009159 14.694946 5.149788 -1.013353 -16.578883 0.122468 0.008184 -0.593133 -1.618759 1.898874 12.088227 0.000000 0.000000 0.000000 -10.160223 0.768747 -14.260921 -3.642903 0.510888 2.068703 -3.519780 -11.247426 10.175333 0.000000 0.000000 0.000000 8.513482 0.143990 -5.845728 3.134467 -1.246780 -3.252295 -6.876832 16.020930 2.646949 27.590081 -20.643649 -6.291691 0.000000 0.000000 0.000000 12.241612 3.631908 2.360796 -72.831778 -44.037258 14.596629 145.720695 -51.259778 -113.857066 0.000000 0.000000 0.000000 -21.446948 -8.148232 -3.087837 84.277972 35.495473 33.099577 -113.226688 40.199660 -43.932382 0.000000 0.000000 0.000000 
-0.016465 0.956466 -0.055324 3.291087 -1.685423 14.623296 4.518220 -0.966607 -15.175735 0.391258 0.044056 -2.290006 -1.948687 1.067012 11.944317 0.000000 0.000000 0.000000 -9.728857 0.860679 -14.416458 -4.037399 0.540465 1.953895 -2.635352 -9.597848 9.684132 0.000000 0.000000 0.000000 8.824855 0.188364 -6.067944 3.882638 -1.613719 -2.567260 -7.587892 16.732796 1.747380 26.960902 -21.703769 -3.516475 0.000000 0.000000 0.000000 12.978830 3.795139 2.547966 -69.378378 -46.667759 15.436896 137.827178 -48.429146 -98.854116 0.000000 0.000000 0.000000 -21.640611 -7.144594 -2.886123 84.552511 37.081326 34.768135 -115.715233 40.749055 -46.755679 0.000000 0.000000 0.000000 
-0.014866 0.957424 -0.056355 2.247074 -6.177586 14.576823 3.979003 -0.865862 -13.910737 1.950974 -0.100117 -2.391419 -0.444834 3.057929 12.104843 0.000000 0.000000 0.000000 -8.840995 1.078847 -14.880209 -4.640233 0.515786 1.144496 -0.188472 -5.488879 10.304205 0.000000 0.000000 0.000000 9.798847 0.187397 -5.633841 3.982101 -1.681689 -2.213444 -7.034022 13.406305 1.541675 24.616844 -20.104467 -1.735930 0.000000 0.000000 0.000000 13.585466 3.623756 2.015311 -67.392842 -47.501395 17.948407 135.709906 -44.377497 -88.223386 0.000000 0.000000 0.000000 -21.882727 -8.682505 -1.866301 88.932220 37.057349 33.874574 -128.601652 47.605519 -72.749800 0.000000 0.000000 0.000000 
